<?xml version="1.0" encoding="UTF-8" standalone="no"?>
<!--~
  ~ Copyright 2017 Sebastian Raubach and Paul Shaw from the
  ~ Information and Computational Sciences Group at JHI Dundee
  ~
  ~ Licensed under the Apache License, Version 2.0 (the "License");
  ~ you may not use this file except in compliance with the License.
  ~ You may obtain a copy of the License at
  ~
  ~      http://www.apache.org/licenses/LICENSE-2.0
  ~
  ~ Unless required by applicable law or agreed to in writing, software
  ~ distributed under the License is distributed on an "AS IS" BASIS,
  ~ WITHOUT WARRANTIES OR CONDITIONS OF ANY KIND, either express or implied.
  ~ See the License for the specific language governing permissions and
  ~ limitations under the License.
  -->

<!-- Created with Inkscape (http://www.inkscape.org/) -->

<svg
   height="524.40997"
   id="svg2"
   version="1.1"
   viewBox="0 0 744.09497 524.40997"
   width="744.09497"
   xmlns="http://www.w3.org/2000/svg"
   xmlns:cc="http://creativecommons.org/ns#"
   xmlns:dc="http://purl.org/dc/elements/1.1/"
   xmlns:inkscape="http://www.inkscape.org/namespaces/inkscape"
   xmlns:rdf="http://www.w3.org/1999/02/22-rdf-syntax-ns#"
   xmlns:sodipodi="http://sodipodi.sourceforge.net/DTD/sodipodi-0.dtd"
   inkscape:export-filename="C:\Users\sr41756\Desktop\huttonlarge.png"
   inkscape:export-xdpi="228.44322"
   inkscape:export-ydpi="228.44322"
   inkscape:version="0.91 r13725"
   sodipodi:docname="huttonlarge.svg"
   xml:space="preserve"><metadata
     id="metadata8"><rdf:RDF><cc:Work
         rdf:about=""><dc:format>image/svg+xml</dc:format><dc:type
           rdf:resource="http://purl.org/dc/dcmitype/StillImage" /></cc:Work></rdf:RDF></metadata><defs
     id="defs6"><clipPath
       clipPathUnits="userSpaceOnUse"
       id="clipPath16"><path
         d="m 0,0 595.275,0 0,188.929 L 0,188.929 0,0 Z"
         id="path18"
         inkscape:connector-curvature="0" /></clipPath><clipPath
       clipPathUnits="userSpaceOnUse"
       id="clipPath44"><path
         d="m 490.394,241.889 77.953,0 0,150 -77.953,0 0,-150 z"
         id="path46"
         inkscape:connector-curvature="0" /></clipPath><clipPath
       clipPathUnits="userSpaceOnUse"
       id="clipPath170"><path
         d="m 0,0 595.275,0 0,419.528 L 0,419.528 0,0 Z"
         id="path172"
         inkscape:connector-curvature="0" /></clipPath><clipPath
       clipPathUnits="userSpaceOnUse"
       id="clipPath218"><path
         d="m 297.148,119.327 291.36,0 0,77.28 -291.36,0 0,-77.28 z"
         id="path220"
         inkscape:connector-curvature="0" /></clipPath><clipPath
       clipPathUnits="userSpaceOnUse"
       id="clipPath232"><path
         d="m 0,0 595.275,0 0,419.528 L 0,419.528 0,0 Z"
         id="path234"
         inkscape:connector-curvature="0" /></clipPath></defs><sodipodi:namedview
     bordercolor="#666666"
     borderopacity="1"
     gridtolerance="10"
     guidetolerance="10"
     id="namedview4"
     objecttolerance="10"
     pagecolor="#ffffff"
     showgrid="false"
     inkscape:current-layer="g10"
     inkscape:cx="392.19644"
     inkscape:cy="238.87319"
     inkscape:pageopacity="0"
     inkscape:pageshadow="2"
     inkscape:window-height="1018"
     inkscape:window-maximized="1"
     inkscape:window-width="1920"
     inkscape:window-x="-8"
     inkscape:window-y="-8"
     inkscape:zoom="1.4638893" /><g
     id="g10"
     transform="matrix(1.25,0,0,-1.25,0,524.41)"
     inkscape:groupmode="layer"
     inkscape:label="logo-use-guidelines(1)"><g
       style="opacity:0.3"
       clip-path="url(#clipPath16)"
       id="g14"><g
         style=""
         id="g20"
         transform="translate(-32.3824,-38.447006)"><path
           style="fill:#6ea31b;fill-opacity:1;fill-rule:nonzero;stroke:none"
           d="m 0,0 0,96.164 c 0,0 39.645,17.264 82.416,25.237 0,0 53.542,12.422 100.717,1.111 0,0 36.795,-5.036 113.66,-44.524 0,0 57.902,-27.903 97.371,-36.175 0,0 53.353,-12.341 123.524,-5.845 0,0 72.324,7.367 129.74,31.221 L 647.428,0 0,0 Z"
           id="path22"
           inkscape:connector-curvature="0" /></g><g
         style=""
         id="g24"
         transform="translate(105.4825,95.6539)"><path
           style="fill:#c0d790;fill-opacity:1;fill-rule:nonzero;stroke:none"
           d="m 0,0 c -36.721,0 -88.834,-7.887 -140.376,-31.025 l 0.042,-9.264 c 31.298,12.687 83.081,30.688 139.996,30.688 59.865,0 106.351,-23.471 162.288,-50.893 62.574,-30.676 111.463,-42.26 172.49,-42.26 l 0.017,0 c 80.35,0.008 147.7,21.566 175.106,33.423 l 0.002,9.629 C 428.763,-92.911 345.31,-93.019 344.24,-93.019 l -0.01,0 c -3.379,-0.097 -6.766,-0.146 -10.152,-0.146 -43.232,0 -86.814,7.845 -125.202,21.95 -8.459,3.111 -48.545,21.076 -50.627,22.165 C 92.649,-14.714 47.073,-1.562 8.753,-0.156 5.947,-0.054 3.022,0 0,0"
           id="path26"
           inkscape:connector-curvature="0" /></g><g
         style=""
         id="g28"
         transform="translate(104.852,76.998001)"><path
           style="fill:#a3c563;fill-opacity:1;fill-rule:nonzero;stroke:none"
           d="m 0,0 c -56.913,0 -108.698,-18 -139.995,-30.686 l -0.002,0.402 c -0.097,-0.043 -0.191,-0.086 -0.288,-0.129 l 0.042,-9.266 c 31.297,12.688 83.081,30.686 139.995,30.686 59.866,0 106.351,-23.469 162.286,-50.891 62.575,-30.674 111.466,-42.261 172.492,-42.261 l 0.017,0 c 80.35,0.011 147.698,21.566 175.106,33.424 l 0,8.884 c -27.568,-11.88 -94.752,-33.306 -174.858,-33.316 l -0.017,0 c -61.027,0 -109.915,11.586 -172.49,42.262 C 106.351,-23.472 59.866,0 0,0"
           id="path30"
           inkscape:connector-curvature="0" /></g></g><g
       style="opacity:0.3"
       clip-path="url(#clipPath170)"
       id="g168"><g
         style=""
         id="g174"
         transform="translate(223.3244,131.0956)"><path
           style="fill:#c0d790;fill-opacity:1;fill-rule:nonzero;stroke:none"
           d="m 0,0 c 0,0 0,-6.159 6.159,-6.159 l 58.725,0 c 0,0 6.158,0 6.158,6.159 l 0,58.725 c 0,0 0,6.159 -6.158,6.159 l -58.725,0 c 0,0 -6.159,0 -6.159,-6.159 L 0,0 Z"
           id="path176"
           inkscape:connector-curvature="0" /></g><g
         style=""
         id="g178"
         transform="translate(223.3244,131.0956)"><path
           style="fill:none;stroke:#c0d790;stroke-width:1;stroke-linecap:butt;stroke-linejoin:miter;stroke-miterlimit:4;stroke-dasharray:none;stroke-opacity:1"
           d="m 0,0 c 0,0 0,-6.159 6.159,-6.159 l 58.725,0 c 0,0 6.158,0 6.158,6.159 l 0,58.725 c 0,0 0,6.159 -6.158,6.159 l -58.725,0 c 0,0 -6.159,0 -6.159,-6.159 L 0,0 Z"
           id="path180"
           inkscape:connector-curvature="0" /></g><g
         style=""
         id="g182"
         transform="translate(150.1561,205.825)"><path
           style="fill:#aa60a2;fill-opacity:1;fill-rule:nonzero;stroke:none"
           d="m 0,0 c 0,0 0,-6.159 6.159,-6.159 l 58.725,0 c 0,0 6.158,0 6.158,6.159 l 0,58.725 c 0,0 0,6.159 -6.158,6.159 l -58.725,0 c 0,0 -6.159,0 -6.159,-6.159 L 0,0 Z"
           id="path184"
           inkscape:connector-curvature="0" /></g><g
         style=""
         id="g186"
         transform="translate(0.2756042,131.0956)"><path
           style="fill:#aa60a2;fill-opacity:1;fill-rule:nonzero;stroke:none"
           d="m 0,0 c 0,0 0,-6.159 6.159,-6.159 l 58.725,0 c 0,0 6.158,0 6.158,6.159 l 0,58.725 c 0,0 0,6.159 -6.158,6.159 l -58.725,0 c 0,0 -6.159,0 -6.159,-6.159 L 0,0 Z"
           id="path188"
           inkscape:connector-curvature="0" /></g><g
         style=""
         id="g190"
         transform="translate(75.826797,354.1163)"><path
           style="fill:#c0d790;fill-opacity:1;fill-rule:nonzero;stroke:none"
           d="m 0,0 c 0,0 0,-6.159 6.159,-6.159 l 58.725,0 c 0,0 6.158,0 6.158,6.159 l 0,58.725 c 0,0 0,6.159 -6.158,6.159 l -58.725,0 c 0,0 -6.159,0 -6.159,-6.159 L 0,0 Z"
           id="path192"
           inkscape:connector-curvature="0" /></g><g
         style=""
         id="g194"
         transform="translate(75.826797,354.1163)"><path
           style="fill:none;stroke:#c0d790;stroke-width:1;stroke-linecap:butt;stroke-linejoin:miter;stroke-miterlimit:4;stroke-dasharray:none;stroke-opacity:1"
           d="m 0,0 c 0,0 0,-6.159 6.159,-6.159 l 58.725,0 c 0,0 6.158,0 6.158,6.159 l 0,58.725 c 0,0 0,6.159 -6.158,6.159 l -58.725,0 c 0,0 -6.159,0 -6.159,-6.159 L 0,0 Z"
           id="path196"
           inkscape:connector-curvature="0" /></g><g
         style=""
         id="g198"
         transform="translate(297.7756,205.825)"><path
           style="fill:#c0d790;fill-opacity:1;fill-rule:nonzero;stroke:none"
           d="m 0,0 c 0,0 0,-6.159 6.159,-6.159 l 58.725,0 c 0,0 6.158,0 6.158,6.159 l 0,58.725 c 0,0 0,6.159 -6.158,6.159 l -58.725,0 c 0,0 -6.159,0 -6.159,-6.159 L 0,0 Z"
           id="path200"
           inkscape:connector-curvature="0" /></g><g
         style=""
         id="g202"
         transform="translate(297.7756,205.825)"><path
           style="fill:none;stroke:#c0d790;stroke-width:1;stroke-linecap:butt;stroke-linejoin:miter;stroke-miterlimit:4;stroke-dasharray:none;stroke-opacity:1"
           d="m 0,0 c 0,0 0,-6.159 6.159,-6.159 l 58.725,0 c 0,0 6.158,0 6.158,6.159 l 0,58.725 c 0,0 0,6.159 -6.158,6.159 l -58.725,0 c 0,0 -6.159,0 -6.159,-6.159 L 0,0 Z"
           id="path204"
           inkscape:connector-curvature="0" /></g><g
         style=""
         id="g206"
         transform="translate(223.3244,281.3654)"><path
           style="fill:#b8d4e3;fill-opacity:1;fill-rule:nonzero;stroke:none"
           d="m 0,0 c 0,0 0,-6.159 6.159,-6.159 l 58.725,0 c 0,0 6.158,0 6.158,6.159 l 0,58.725 c 0,0 0,6.159 -6.158,6.159 l -58.725,0 c 0,0 -6.159,0 -6.159,-6.159 L 0,0 Z"
           id="path208"
           inkscape:connector-curvature="0" /></g><g
         style=""
         id="g210"
         transform="translate(75.826797,205.825)"><path
           style="fill:#b8d4e3;fill-opacity:1;fill-rule:nonzero;stroke:none"
           d="m 0,0 c 0,0 0,-6.159 6.159,-6.159 l 58.725,0 c 0,0 6.158,0 6.158,6.159 l 0,58.725 c 0,0 0,6.159 -6.158,6.159 l -58.725,0 c 0,0 -6.159,0 -6.159,-6.159 L 0,0 Z"
           id="path212"
           inkscape:connector-curvature="0" /></g></g></g></svg>