<?xml version="1.0" encoding="UTF-8" standalone="no"?>
<!--~
  ~ Copyright 2017 Sebastian Raubach and Paul Shaw from the
  ~ Information and Computational Sciences Group at JHI Dundee
  ~
  ~ Licensed under the Apache License, Version 2.0 (the "License");
  ~ you may not use this file except in compliance with the License.
  ~ You may obtain a copy of the License at
  ~
  ~      http://www.apache.org/licenses/LICENSE-2.0
  ~
  ~ Unless required by applicable law or agreed to in writing, software
  ~ distributed under the License is distributed on an "AS IS" BASIS,
  ~ WITHOUT WARRANTIES OR CONDITIONS OF ANY KIND, either express or implied.
  ~ See the License for the specific language governing permissions and
  ~ limitations under the License.
  -->

<!-- Created with Inkscape (http://www.inkscape.org/) -->

<svg
   height="342"
   id="svg2"
   version="1.1"
   width="342"
   xmlns="http://www.w3.org/2000/svg"
   xmlns:cc="http://creativecommons.org/ns#"
   xmlns:dc="http://purl.org/dc/elements/1.1/"
   xmlns:inkscape="http://www.inkscape.org/namespaces/inkscape"
   xmlns:rdf="http://www.w3.org/1999/02/22-rdf-syntax-ns#"
   xmlns:sodipodi="http://sodipodi.sourceforge.net/DTD/sodipodi-0.dtd"
   inkscape:export-filename="C:\Users\sr41756\Desktop\twitter.png"
   inkscape:export-xdpi="4.2105265"
   inkscape:export-ydpi="4.2105265"
   inkscape:version="0.48.4 r9939"
   sodipodi:docname="Twitter_logo_blue.eps"
   xml:space="preserve"><metadata
     id="metadata8"><rdf:RDF><cc:Work
         rdf:about=""><dc:format>image/svg+xml</dc:format><dc:type
           rdf:resource="http://purl.org/dc/dcmitype/StillImage" /><dc:title></dc:title></cc:Work></rdf:RDF></metadata><defs
     id="defs6"><clipPath
       clipPathUnits="userSpaceOnUse"
       id="clipPath18"><path
         d="M 0,2221.78 0,0 l 2733.9,0 0,2221.78 -2733.9,0 z"
         id="path20"
         inkscape:connector-curvature="0" /></clipPath></defs><sodipodi:namedview
     bordercolor="#666666"
     borderopacity="1"
     gridtolerance="10"
     guidetolerance="10"
     id="namedview4"
     objecttolerance="10"
     pagecolor="#ffffff"
     showgrid="false"
     inkscape:current-layer="g10"
     inkscape:cx="107.56124"
     inkscape:cy="171"
     inkscape:pageopacity="0"
     inkscape:pageshadow="2"
     inkscape:window-height="1058"
     inkscape:window-maximized="1"
     inkscape:window-width="1858"
     inkscape:window-x="54"
     inkscape:window-y="-8"
     inkscape:zoom="2.4590643" /><g
     id="g10"
     transform="matrix(1.25,0,0,-1.25,0,341.99999)"
     inkscape:groupmode="layer"
     inkscape:label="ink_ext_XXXXXX"><path
       style="fill:#55acee;fill-opacity:1;fill-rule:nonzero;stroke:none"
       d="m 86.0847,25.710992 c -31.675,0 -61.1574,9.28516 -85.9797,25.1988 4.38789,-0.5179 8.85273,-0.7828 13.3801,-0.7828 26.2781,0 50.4629,8.9672 69.659,24.0102 -24.5442,0.4527 -45.2578,16.6687 -52.3953,38.952698 3.4246,-0.6551 6.9382,-1.0059 10.5527,-1.0059 5.1148,0 10.0703,0.6852 14.7769,1.9668 -25.6589,5.1524 -44.9929,27.8222 -44.9929,54.9982 0,0.237 8e-4,0.471 0.0047,0.705 7.5628,-4.201 16.2113,-6.724 25.4054,-7.015 -15.05,10.058 -24.9519,27.226 -24.9519,46.685 0,10.28 2.7652,19.914 7.5933,28.198 27.6645,-33.934 68.9934,-56.264 115.609,-58.603 -0.956,4.105 -1.453,8.386 -1.453,12.782 0,30.975 25.114,56.088 56.091,56.088 16.132,0 30.709,-6.812 40.941,-17.713 12.776,2.516 24.78,7.184 35.617,13.612 -4.188,-13.098 -13.081,-24.09 -24.662,-31.032 11.346,1.356 22.156,4.371 32.215,8.832 -7.52,-11.248 -17.03,-21.127 -27.988,-29.035 0.108,-2.405 0.162,-4.824 0.162,-7.256 0,-74.1188 -56.416,-159.585998 -159.5843,-159.585998"
       id="path22"
       inkscape:connector-curvature="0" /></g></svg>